<svg xmlns="http://www.w3.org/2000/svg" xmlns:xlink="http://www.w3.org/1999/xlink" version="1.1" x="0px" y="0px" viewBox="0 0 100 100" enable-background="new 0 0 100 100" xml:space="preserve"><path d="M75.719,25.218c-0.274-5.054-4.474-9.081-9.596-9.081c-1.261,0-2.503,0.25-3.663,0.732  C59.107,10.105,52.268,5.816,44.626,5.816c-10.804,0-19.627,8.642-19.921,19.376C14.179,25.714,5.774,34.441,5.774,45.095  c0,10.988,8.939,19.927,19.929,19.927h8.113l-1.878,7.512h6.517l-4.537,23.204l21.52-30.716h18.858  c10.989,0,19.929-8.939,19.929-19.927C94.225,34.585,86.046,25.95,75.719,25.218z M35.616,69.662l6.742-26.968h16.329l-12.797,18.27  h8.883L39.335,83l2.607-13.337H35.616z M74.296,62.15H57.45l2.843-4.058h-8.884l12.797-18.27h-24.09L34.534,62.15h-8.831  c-9.405,0-17.056-7.651-17.056-17.055c0-9.405,7.65-17.056,17.056-17.056c0.055,0,0.109,0.005,0.163,0.009  c0.093,0.006,0.185,0.012,0.278,0.014c0.403,0.014,0.781-0.146,1.059-0.431c0.279-0.285,0.427-0.671,0.409-1.069l-0.021-0.353  c-0.011-0.155-0.021-0.31-0.021-0.467c0-9.405,7.65-17.056,17.056-17.056c6.989,0,13.197,4.195,15.812,10.688  c0.16,0.395,0.486,0.699,0.892,0.83c0.402,0.13,0.847,0.075,1.208-0.152c1.082-0.683,2.321-1.044,3.585-1.044  c3.715,0,6.737,3.021,6.737,6.735c0,0.24-0.015,0.477-0.04,0.712c-0.042,0.405,0.089,0.809,0.361,1.111  c0.273,0.303,0.661,0.476,1.067,0.476c0.024,0,0.057-0.001,0.087-0.003c9.387,0.022,17.017,7.665,17.017,17.056  C91.353,54.499,83.701,62.15,74.296,62.15z"></path></svg>